<svg xmlns="http://www.w3.org/2000/svg" viewBox="0 0 64 64" role="img" aria-labelledby="title desc">
  <title id="title">Aripa</title>
  <desc id="desc">Isotipo abstracto de una a en bucle.</desc>
  <path d="M31.8 15.5c-10.3 0-18.7 7.6-18.7 17.1 0 8.9 7.1 15.9 16.4 15.9 6.2 0 10.7-2.7 13.8-7.4v5.9h7.7V17h-7.7v5.8c-2.9-4.6-6.7-7.3-11.5-7.3zm.9 7.8c6.2 0 10.8 4.1 10.8 9.7 0 5.7-4.6 9.9-10.8 9.9-6.4 0-11.5-4.3-11.5-9.9 0-5.7 5.1-9.7 11.5-9.7z" fill="#17324d"/>
  <path d="M20.4 44.4C30.8 57.2 50.7 52 51 32.1" fill="none" stroke="#b88a44" stroke-width="4" stroke-linecap="round"/>
</svg>
